<svg xmlns="http://www.w3.org/2000/svg" version="1.1" xmlns:xlink="http://www.w3.org/1999/xlink"
    xmlns:svgjs="http://svgjs.com/svgjs" width="512" height="512" x="0" y="0" viewBox="0 0 48 48"
    style="enable-background:new 0 0 512 512" xml:space="preserve">
    <g data-name="Open Folder">
        <path fill="#376cfb" d="M45 18h-4v-4a2.996 2.996 0 0 0-3-3H22.75a3 3 0 0 1-2.33-1.11l-1.96-2.41A3.985 3.985 0 0 0 15.36 6H4a2.996 2.996 0 0 0-3 3v29.57a3.367 3.367 0 0 0 1.01 2.42A3.367 3.367 0 0 0 4.43 42h33.66a3.441 3.441 0 0 0 3.3-2.47l5.53-18.97A2.003 2.003 0 0 0 45 18z" data-original="#376cfb"></path>
        <path fill="#4294ff" d="M44.999 18H16.572a3.43 3.43 0 0 0-3.292 2.47L7.72 39.531A3.429 3.429 0 0 1 4.429 42h33.663a3.43 3.43 0 0 0 3.294-2.47l5.533-18.97a2 2 0 0 0-1.92-2.56z" data-original="#4294ff"></path>
    </g>
</svg>